<mxfile host="65bd71144e">
    <diagram id="SCJF_fBiNvNs4r8g6Ouh" name="Page-1">
        <mxGraphModel dx="1608" dy="330" grid="0" gridSize="10" guides="1" tooltips="1" connect="1" arrows="1" fold="1" page="1" pageScale="1" pageWidth="1100" pageHeight="850" background="#ffffff" math="0" shadow="0">
            <root>
                <mxCell id="0"/>
                <mxCell id="1" parent="0"/>
                <mxCell id="149" value="" style="rounded=0;whiteSpace=wrap;html=1;strokeColor=#000000;strokeWidth=0.5;fontFamily=Calibri;fontSource=https%3A%2F%2Ffonts.googleapis.com%2Fcss%3Ffamily%3DCalibri;fontSize=12;fontColor=#000000;fillColor=none;opacity=70;dashed=1;dashPattern=12 12;" parent="1" vertex="1">
                    <mxGeometry x="151" y="112" width="920" height="507" as="geometry"/>
                </mxCell>
                <mxCell id="79" value="" style="rounded=0;whiteSpace=wrap;html=1;strokeColor=#000000;strokeWidth=0.5;fontFamily=Calibri;fontSource=https%3A%2F%2Ffonts.googleapis.com%2Fcss%3Ffamily%3DCalibri;fontSize=12;fontColor=#000000;fillColor=none;opacity=70;dashed=1;dashPattern=12 12;" parent="1" vertex="1">
                    <mxGeometry x="-936" y="99" width="1046" height="538" as="geometry"/>
                </mxCell>
                <mxCell id="45" style="edgeStyle=none;html=1;exitX=1;exitY=0.5;exitDx=0;exitDy=0;entryX=0;entryY=0.5;entryDx=0;entryDy=0;strokeColor=#4D4D4D;strokeWidth=0.5;fontFamily=Calibri;fontSource=https%3A%2F%2Ffonts.googleapis.com%2Fcss%3Ffamily%3DCalibri;fontSize=12;fontColor=#000000;endArrow=none;endFill=0;" parent="1" source="2" target="35" edge="1">
                    <mxGeometry relative="1" as="geometry"/>
                </mxCell>
                <mxCell id="2" value="&lt;font color=&quot;#000000&quot;&gt;Population Density&lt;/font&gt;" style="rounded=0;whiteSpace=wrap;html=1;fillColor=#caffbf;strokeColor=#36393d;strokeWidth=0.5;opacity=70;fontFamily=Calibri;fontSource=https%3A%2F%2Ffonts.googleapis.com%2Fcss%3Ffamily%3DCalibri;" parent="1" vertex="1">
                    <mxGeometry x="244.5" y="164" width="140" height="30" as="geometry"/>
                </mxCell>
                <mxCell id="51" style="edgeStyle=none;html=1;exitX=1;exitY=0.5;exitDx=0;exitDy=0;entryX=0;entryY=0.5;entryDx=0;entryDy=0;strokeColor=#4D4D4D;strokeWidth=0.5;fontFamily=Calibri;fontSource=https%3A%2F%2Ffonts.googleapis.com%2Fcss%3Ffamily%3DCalibri;fontSize=12;fontColor=#000000;endArrow=none;endFill=0;" parent="1" source="8" target="35" edge="1">
                    <mxGeometry relative="1" as="geometry"/>
                </mxCell>
                <mxCell id="8" value="&lt;font color=&quot;#000000&quot;&gt;Available Parking Space&lt;/font&gt;" style="rounded=0;whiteSpace=wrap;html=1;fillColor=#FFCC99;strokeColor=#36393d;fontFamily=Calibri;fontSource=https%3A%2F%2Ffonts.googleapis.com%2Fcss%3Ffamily%3DCalibri;opacity=70;strokeWidth=0.5;" parent="1" vertex="1">
                    <mxGeometry x="244.5" y="394" width="140" height="30" as="geometry"/>
                </mxCell>
                <mxCell id="49" style="edgeStyle=none;html=1;exitX=1;exitY=0.5;exitDx=0;exitDy=0;entryX=0;entryY=0.5;entryDx=0;entryDy=0;strokeColor=#4D4D4D;strokeWidth=0.5;fontFamily=Calibri;fontSource=https%3A%2F%2Ffonts.googleapis.com%2Fcss%3Ffamily%3DCalibri;fontSize=12;fontColor=#000000;endArrow=none;endFill=0;" parent="1" source="9" target="35" edge="1">
                    <mxGeometry relative="1" as="geometry"/>
                </mxCell>
                <mxCell id="9" value="&lt;font color=&quot;#000000&quot;&gt;Existing EVSE Distribution&lt;/font&gt;" style="rounded=0;whiteSpace=wrap;html=1;fillColor=#fdffb6;strokeColor=#36393d;fontFamily=Calibri;opacity=70;fontSource=https%3A%2F%2Ffonts.googleapis.com%2Fcss%3Ffamily%3DCalibri;strokeWidth=0.5;" parent="1" vertex="1">
                    <mxGeometry x="244.5" y="303" width="139" height="31" as="geometry"/>
                </mxCell>
                <mxCell id="56" style="edgeStyle=none;html=1;exitX=1;exitY=0.5;exitDx=0;exitDy=0;entryX=0;entryY=0.5;entryDx=0;entryDy=0;strokeColor=#4D4D4D;strokeWidth=0.5;fontFamily=Calibri;fontSource=https%3A%2F%2Ffonts.googleapis.com%2Fcss%3Ffamily%3DCalibri;fontSize=12;fontColor=#000000;endArrow=none;endFill=0;" parent="1" source="10" target="35" edge="1">
                    <mxGeometry relative="1" as="geometry"/>
                </mxCell>
                <mxCell id="10" value="&lt;font color=&quot;#000000&quot;&gt;Power Supply&lt;/font&gt;" style="rounded=0;whiteSpace=wrap;html=1;fillColor=#9bf6ff;strokeColor=#36393d;opacity=70;strokeWidth=0.5;fontFamily=Calibri;fontSource=https%3A%2F%2Ffonts.googleapis.com%2Fcss%3Ffamily%3DCalibri;" parent="1" vertex="1">
                    <mxGeometry x="244.5" y="524" width="140" height="30" as="geometry"/>
                </mxCell>
                <mxCell id="26" style="edgeStyle=none;html=1;exitX=0;exitY=0.5;exitDx=0;exitDy=0;strokeColor=#4D4D4D;strokeWidth=0.5;fontFamily=Calibri;fontSource=https%3A%2F%2Ffonts.googleapis.com%2Fcss%3Ffamily%3DCalibri;fontSize=12;fontColor=#000000;endArrow=none;endFill=0;entryX=0.5;entryY=1;entryDx=0;entryDy=0;" parent="1" source="11" target="21" edge="1">
                    <mxGeometry relative="1" as="geometry">
                        <mxPoint x="188.93711344401038" y="224.1428571428571" as="targetPoint"/>
                    </mxGeometry>
                </mxCell>
                <mxCell id="46" style="edgeStyle=none;html=1;exitX=1;exitY=0.5;exitDx=0;exitDy=0;strokeColor=#4D4D4D;strokeWidth=0.5;fontFamily=Calibri;fontSource=https%3A%2F%2Ffonts.googleapis.com%2Fcss%3Ffamily%3DCalibri;fontSize=12;fontColor=#000000;endArrow=none;endFill=0;" parent="1" source="11" edge="1">
                    <mxGeometry relative="1" as="geometry">
                        <mxPoint x="484.370653235394" y="393.53846541694975" as="targetPoint"/>
                    </mxGeometry>
                </mxCell>
                <mxCell id="11" value="&lt;font color=&quot;#000000&quot;&gt;Percentage Driving&lt;br&gt;Age Population&lt;br&gt;&lt;/font&gt;" style="rounded=0;whiteSpace=wrap;html=1;fillColor=#caffbf;strokeColor=#36393d;fontFamily=Calibri;fontSource=https%3A%2F%2Ffonts.googleapis.com%2Fcss%3Ffamily%3DCalibri;opacity=70;strokeWidth=0.5;" parent="1" vertex="1">
                    <mxGeometry x="244.5" y="204" width="139" height="40" as="geometry"/>
                </mxCell>
                <mxCell id="29" style="edgeStyle=none;html=1;exitX=0;exitY=0.5;exitDx=0;exitDy=0;entryX=0.5;entryY=1;entryDx=0;entryDy=0;strokeColor=#4D4D4D;strokeWidth=0.5;fontFamily=Calibri;fontSource=https%3A%2F%2Ffonts.googleapis.com%2Fcss%3Ffamily%3DCalibri;fontSize=12;fontColor=#000000;endArrow=none;endFill=0;" parent="1" source="12" target="22" edge="1">
                    <mxGeometry relative="1" as="geometry"/>
                </mxCell>
                <mxCell id="50" style="edgeStyle=none;html=1;exitX=1;exitY=0.5;exitDx=0;exitDy=0;strokeColor=#4D4D4D;strokeWidth=0.5;fontFamily=Calibri;fontSource=https%3A%2F%2Ffonts.googleapis.com%2Fcss%3Ffamily%3DCalibri;fontSize=12;fontColor=#000000;endArrow=none;endFill=0;" parent="1" source="12" edge="1">
                    <mxGeometry relative="1" as="geometry">
                        <mxPoint x="483.9807541791131" y="393.6821280086742" as="targetPoint"/>
                    </mxGeometry>
                </mxCell>
                <mxCell id="12" value="&lt;font color=&quot;#000000&quot;&gt;Existing EVSE Accessibility&lt;/font&gt;" style="rounded=0;whiteSpace=wrap;html=1;fillColor=#fdffb6;strokeColor=#36393d;opacity=70;fontFamily=Calibri;fontSource=https%3A%2F%2Ffonts.googleapis.com%2Fcss%3Ffamily%3DCalibri;strokeWidth=0.5;" parent="1" vertex="1">
                    <mxGeometry x="244.5" y="344" width="139" height="30" as="geometry"/>
                </mxCell>
                <mxCell id="47" style="edgeStyle=none;html=1;exitX=1;exitY=0.5;exitDx=0;exitDy=0;entryX=0;entryY=0.5;entryDx=0;entryDy=0;strokeColor=#4D4D4D;strokeWidth=0.5;fontFamily=Calibri;fontSource=https%3A%2F%2Ffonts.googleapis.com%2Fcss%3Ffamily%3DCalibri;fontSize=12;fontColor=#000000;endArrow=none;endFill=0;" parent="1" source="13" target="35" edge="1">
                    <mxGeometry relative="1" as="geometry"/>
                </mxCell>
                <mxCell id="13" value="&lt;font color=&quot;#000000&quot;&gt;EV Ownership&lt;/font&gt;" style="rounded=0;whiteSpace=wrap;html=1;fillColor=#caffbf;strokeColor=#36393d;fontFamily=Calibri;opacity=70;strokeWidth=0.5;fontSource=https%3A%2F%2Ffonts.googleapis.com%2Fcss%3Ffamily%3DCalibri;" parent="1" vertex="1">
                    <mxGeometry x="244.5" y="254" width="139" height="30" as="geometry"/>
                </mxCell>
                <mxCell id="31" style="edgeStyle=none;html=1;exitX=0;exitY=0.5;exitDx=0;exitDy=0;strokeColor=#4D4D4D;strokeWidth=0.5;fontFamily=Calibri;fontSource=https%3A%2F%2Ffonts.googleapis.com%2Fcss%3Ffamily%3DCalibri;fontSize=12;fontColor=#000000;endArrow=none;endFill=0;entryX=0.5;entryY=1;entryDx=0;entryDy=0;" parent="1" source="14" target="23" edge="1">
                    <mxGeometry relative="1" as="geometry">
                        <mxPoint x="190.5" y="449" as="targetPoint"/>
                    </mxGeometry>
                </mxCell>
                <mxCell id="53" style="edgeStyle=none;html=1;exitX=1;exitY=0.5;exitDx=0;exitDy=0;entryX=0;entryY=0.5;entryDx=0;entryDy=0;strokeColor=#4D4D4D;strokeWidth=0.5;fontFamily=Calibri;fontSource=https%3A%2F%2Ffonts.googleapis.com%2Fcss%3Ffamily%3DCalibri;fontSize=12;fontColor=#000000;endArrow=none;endFill=0;" parent="1" source="14" target="35" edge="1">
                    <mxGeometry relative="1" as="geometry"/>
                </mxCell>
                <mxCell id="14" value="&lt;font color=&quot;#000000&quot;&gt;Zoning Restrictions&lt;/font&gt;" style="rounded=0;whiteSpace=wrap;html=1;fillColor=#ffcc99;strokeColor=#36393d;opacity=70;fontFamily=Calibri;fontSource=https%3A%2F%2Ffonts.googleapis.com%2Fcss%3Ffamily%3DCalibri;strokeWidth=0.5;" parent="1" vertex="1">
                    <mxGeometry x="244.5" y="434" width="139" height="30" as="geometry"/>
                </mxCell>
                <mxCell id="32" style="edgeStyle=none;html=1;exitX=0;exitY=0.5;exitDx=0;exitDy=0;strokeColor=#4D4D4D;strokeWidth=0.5;fontFamily=Calibri;fontSource=https%3A%2F%2Ffonts.googleapis.com%2Fcss%3Ffamily%3DCalibri;fontSize=12;fontColor=#000000;endArrow=none;endFill=0;" parent="1" source="15" edge="1">
                    <mxGeometry relative="1" as="geometry">
                        <mxPoint x="188.6432320731027" y="448.8340672084263" as="targetPoint"/>
                    </mxGeometry>
                </mxCell>
                <mxCell id="55" style="edgeStyle=none;html=1;exitX=1;exitY=0.5;exitDx=0;exitDy=0;entryX=0;entryY=0.5;entryDx=0;entryDy=0;strokeColor=#4D4D4D;strokeWidth=0.5;fontFamily=Calibri;fontSource=https%3A%2F%2Ffonts.googleapis.com%2Fcss%3Ffamily%3DCalibri;fontSize=12;fontColor=#000000;endArrow=none;endFill=0;" parent="1" source="15" target="35" edge="1">
                    <mxGeometry relative="1" as="geometry"/>
                </mxCell>
                <mxCell id="15" value="&lt;font color=&quot;#000000&quot;&gt;Neighborhood Safety&lt;/font&gt;" style="rounded=0;whiteSpace=wrap;html=1;fillColor=#ffcc99;strokeColor=#36393d;opacity=70;fontFamily=Calibri;fontSource=https%3A%2F%2Ffonts.googleapis.com%2Fcss%3Ffamily%3DCalibri;strokeWidth=0.5;" parent="1" vertex="1">
                    <mxGeometry x="244.5" y="474" width="140" height="30" as="geometry"/>
                </mxCell>
                <mxCell id="34" style="edgeStyle=none;html=1;exitX=0;exitY=0.5;exitDx=0;exitDy=0;entryX=0.5;entryY=1;entryDx=0;entryDy=0;strokeColor=#4D4D4D;strokeWidth=0.5;fontFamily=Calibri;fontSource=https%3A%2F%2Ffonts.googleapis.com%2Fcss%3Ffamily%3DCalibri;fontSize=12;fontColor=#000000;endArrow=none;endFill=0;" parent="1" source="16" target="24" edge="1">
                    <mxGeometry relative="1" as="geometry"/>
                </mxCell>
                <mxCell id="57" style="edgeStyle=none;html=1;exitX=1;exitY=0.5;exitDx=0;exitDy=0;entryX=0;entryY=0.5;entryDx=0;entryDy=0;strokeColor=#4D4D4D;strokeWidth=0.5;fontFamily=Calibri;fontSource=https%3A%2F%2Ffonts.googleapis.com%2Fcss%3Ffamily%3DCalibri;fontSize=12;fontColor=#000000;endArrow=none;endFill=0;" parent="1" source="16" target="35" edge="1">
                    <mxGeometry relative="1" as="geometry"/>
                </mxCell>
                <mxCell id="16" value="&lt;font color=&quot;#000000&quot;&gt;Power Outage Frequency&lt;/font&gt;" style="rounded=0;whiteSpace=wrap;html=1;fillColor=#9bf6ff;strokeColor=#36393d;opacity=70;strokeWidth=0.5;fontFamily=Calibri;fontSource=https%3A%2F%2Ffonts.googleapis.com%2Fcss%3Ffamily%3DCalibri;" parent="1" vertex="1">
                    <mxGeometry x="244.5" y="564" width="140" height="30" as="geometry"/>
                </mxCell>
                <mxCell id="25" style="edgeStyle=none;html=1;entryX=0;entryY=0.5;entryDx=0;entryDy=0;strokeColor=#4D4D4D;fontFamily=Calibri;fontSource=https%3A%2F%2Ffonts.googleapis.com%2Fcss%3Ffamily%3DCalibri;fontSize=12;fontColor=#000000;endArrow=none;endFill=0;strokeWidth=0.5;exitX=0.5;exitY=1;exitDx=0;exitDy=0;" parent="1" source="21" target="2" edge="1">
                    <mxGeometry relative="1" as="geometry"/>
                </mxCell>
                <mxCell id="27" style="edgeStyle=none;html=1;exitX=0.5;exitY=1;exitDx=0;exitDy=0;entryX=0;entryY=0.5;entryDx=0;entryDy=0;strokeColor=#4D4D4D;strokeWidth=0.5;fontFamily=Calibri;fontSource=https%3A%2F%2Ffonts.googleapis.com%2Fcss%3Ffamily%3DCalibri;fontSize=12;fontColor=#000000;endArrow=none;endFill=0;" parent="1" source="21" target="13" edge="1">
                    <mxGeometry relative="1" as="geometry"/>
                </mxCell>
                <mxCell id="21" value="&lt;h4&gt;Demographic&lt;/h4&gt;" style="rounded=0;whiteSpace=wrap;html=1;strokeColor=#000000;strokeWidth=0.5;fontFamily=Calibri;fontSource=https%3A%2F%2Ffonts.googleapis.com%2Fcss%3Ffamily%3DCalibri;fontColor=#000000;fillColor=#CAFFBF;opacity=70;fontStyle=1;fontSize=13;rotation=-90;" parent="1" vertex="1">
                    <mxGeometry x="117" y="211.5" width="119" height="24" as="geometry"/>
                </mxCell>
                <mxCell id="28" style="edgeStyle=none;html=1;exitX=0.5;exitY=1;exitDx=0;exitDy=0;entryX=0;entryY=0.5;entryDx=0;entryDy=0;strokeColor=#4D4D4D;strokeWidth=0.5;fontFamily=Calibri;fontSource=https%3A%2F%2Ffonts.googleapis.com%2Fcss%3Ffamily%3DCalibri;fontSize=12;fontColor=#000000;endArrow=none;endFill=0;" parent="1" source="22" target="9" edge="1">
                    <mxGeometry relative="1" as="geometry"/>
                </mxCell>
                <mxCell id="22" value="&lt;h4&gt;Infrastructure&lt;/h4&gt;" style="rounded=0;whiteSpace=wrap;html=1;strokeColor=#000000;strokeWidth=0.5;fontFamily=Calibri;fontSource=https%3A%2F%2Ffonts.googleapis.com%2Fcss%3Ffamily%3DCalibri;fontColor=#000000;fillColor=#FDFFB6;opacity=70;fontStyle=1;fontSize=12;rotation=-90;" parent="1" vertex="1">
                    <mxGeometry x="133.19" y="326.07" width="86.63" height="24" as="geometry"/>
                </mxCell>
                <mxCell id="30" style="edgeStyle=none;html=1;exitX=0.5;exitY=1;exitDx=0;exitDy=0;entryX=0;entryY=0.5;entryDx=0;entryDy=0;strokeColor=#4D4D4D;strokeWidth=0.5;fontFamily=Calibri;fontSource=https%3A%2F%2Ffonts.googleapis.com%2Fcss%3Ffamily%3DCalibri;fontSize=12;fontColor=#000000;endArrow=none;endFill=0;" parent="1" source="23" target="8" edge="1">
                    <mxGeometry relative="1" as="geometry"/>
                </mxCell>
                <mxCell id="23" value="&lt;h4&gt;Environment&lt;/h4&gt;" style="rounded=0;whiteSpace=wrap;html=1;strokeColor=#000000;strokeWidth=0.5;fontFamily=Calibri;fontSource=https%3A%2F%2Ffonts.googleapis.com%2Fcss%3Ffamily%3DCalibri;fontColor=#000000;fillColor=#ffdbb7;opacity=70;fontStyle=1;fontSize=12;rotation=-90;" parent="1" vertex="1">
                    <mxGeometry x="121.97" y="437.04" width="109.07" height="24" as="geometry"/>
                </mxCell>
                <mxCell id="33" style="edgeStyle=none;html=1;exitX=0.5;exitY=1;exitDx=0;exitDy=0;entryX=0;entryY=0.5;entryDx=0;entryDy=0;strokeColor=#4D4D4D;strokeWidth=0.5;fontFamily=Calibri;fontSource=https%3A%2F%2Ffonts.googleapis.com%2Fcss%3Ffamily%3DCalibri;fontSize=12;fontColor=#000000;endArrow=none;endFill=0;" parent="1" source="24" target="10" edge="1">
                    <mxGeometry relative="1" as="geometry"/>
                </mxCell>
                <mxCell id="24" value="&lt;h4&gt;Energy&lt;/h4&gt;" style="rounded=0;whiteSpace=wrap;html=1;strokeColor=#000000;strokeWidth=0.5;fontFamily=Calibri;fontSource=https%3A%2F%2Ffonts.googleapis.com%2Fcss%3Ffamily%3DCalibri;fontColor=#000000;fillColor=#b9f8ff;opacity=70;fontStyle=1;fontSize=12;rotation=-90;" parent="1" vertex="1">
                    <mxGeometry x="141.36" y="546.61" width="70.27" height="24" as="geometry"/>
                </mxCell>
                <mxCell id="64" style="edgeStyle=none;html=1;exitX=0.5;exitY=1;exitDx=0;exitDy=0;entryX=0.5;entryY=0;entryDx=0;entryDy=0;strokeColor=#4D4D4D;strokeWidth=0.5;fontFamily=Calibri;fontSource=https%3A%2F%2Ffonts.googleapis.com%2Fcss%3Ffamily%3DCalibri;fontSize=12;fontColor=#000000;endArrow=none;endFill=0;" parent="1" source="35" target="43" edge="1">
                    <mxGeometry relative="1" as="geometry"/>
                </mxCell>
                <mxCell id="67" style="edgeStyle=none;html=1;exitX=1;exitY=0.5;exitDx=0;exitDy=0;entryX=0;entryY=0.5;entryDx=0;entryDy=0;strokeColor=#4D4D4D;strokeWidth=0.5;fontFamily=Calibri;fontSource=https%3A%2F%2Ffonts.googleapis.com%2Fcss%3Ffamily%3DCalibri;fontSize=12;fontColor=#000000;endArrow=none;endFill=0;" parent="1" source="35" target="36" edge="1">
                    <mxGeometry relative="1" as="geometry"/>
                </mxCell>
                <mxCell id="35" value="&lt;h2&gt;&lt;font color=&quot;#000000&quot;&gt;&lt;b&gt;Multi-Criteria Decision Analysis Model&lt;/b&gt;&lt;/font&gt;&lt;/h2&gt;" style="rounded=0;whiteSpace=wrap;html=1;strokeColor=#36393d;strokeWidth=0.5;fontFamily=Calibri;fontSource=https%3A%2F%2Ffonts.googleapis.com%2Fcss%3Ffamily%3DCalibri;fontSize=12;fillColor=#eeeeee;opacity=70;fontStyle=0" parent="1" vertex="1">
                    <mxGeometry x="484.5" y="364" width="200" height="60" as="geometry"/>
                </mxCell>
                <mxCell id="36" value="&lt;font color=&quot;#000000&quot;&gt;Weighted Sum&lt;/font&gt;" style="rounded=0;whiteSpace=wrap;html=1;strokeColor=#36393d;strokeWidth=0.5;fontFamily=Calibri;fontSource=https%3A%2F%2Ffonts.googleapis.com%2Fcss%3Ffamily%3DCalibri;fontSize=12;fillColor=#eeeeee;opacity=70;" parent="1" vertex="1">
                    <mxGeometry x="724.5" y="344" width="110" height="20" as="geometry"/>
                </mxCell>
                <mxCell id="68" style="edgeStyle=none;html=1;exitX=0;exitY=0.5;exitDx=0;exitDy=0;entryX=1;entryY=0.5;entryDx=0;entryDy=0;strokeColor=#4D4D4D;strokeWidth=0.5;fontFamily=Calibri;fontSource=https%3A%2F%2Ffonts.googleapis.com%2Fcss%3Ffamily%3DCalibri;fontSize=12;fontColor=#000000;endArrow=none;endFill=0;" parent="1" source="37" target="35" edge="1">
                    <mxGeometry relative="1" as="geometry"/>
                </mxCell>
                <mxCell id="37" value="&lt;font color=&quot;#000000&quot;&gt;AHP&lt;/font&gt;" style="rounded=0;whiteSpace=wrap;html=1;strokeColor=#36393d;strokeWidth=0.5;fontFamily=Calibri;fontSource=https%3A%2F%2Ffonts.googleapis.com%2Fcss%3Ffamily%3DCalibri;fontSize=12;fillColor=#eeeeee;opacity=70;" parent="1" vertex="1">
                    <mxGeometry x="724.5" y="374" width="110" height="20" as="geometry"/>
                </mxCell>
                <mxCell id="69" style="edgeStyle=none;html=1;exitX=0;exitY=0.5;exitDx=0;exitDy=0;entryX=1;entryY=0.5;entryDx=0;entryDy=0;strokeColor=#4D4D4D;strokeWidth=0.5;fontFamily=Calibri;fontSource=https%3A%2F%2Ffonts.googleapis.com%2Fcss%3Ffamily%3DCalibri;fontSize=12;fontColor=#000000;endArrow=none;endFill=0;" parent="1" source="38" target="35" edge="1">
                    <mxGeometry relative="1" as="geometry"/>
                </mxCell>
                <mxCell id="38" value="&lt;font color=&quot;#000000&quot;&gt;PROMETHEE&lt;/font&gt;" style="rounded=0;whiteSpace=wrap;html=1;strokeColor=#36393d;strokeWidth=0.5;fontFamily=Calibri;fontSource=https%3A%2F%2Ffonts.googleapis.com%2Fcss%3Ffamily%3DCalibri;fontSize=12;fillColor=#eeeeee;opacity=70;" parent="1" vertex="1">
                    <mxGeometry x="724.5" y="404" width="110" height="20" as="geometry"/>
                </mxCell>
                <mxCell id="71" style="edgeStyle=none;html=1;exitX=0;exitY=0.5;exitDx=0;exitDy=0;entryX=1;entryY=0.5;entryDx=0;entryDy=0;strokeColor=#4D4D4D;strokeWidth=0.5;fontFamily=Calibri;fontSource=https%3A%2F%2Ffonts.googleapis.com%2Fcss%3Ffamily%3DCalibri;fontSize=12;fontColor=#000000;endArrow=none;endFill=0;" parent="1" source="39" target="35" edge="1">
                    <mxGeometry relative="1" as="geometry"/>
                </mxCell>
                <mxCell id="39" value="&lt;font color=&quot;#000000&quot;&gt;TOPSIS&lt;/font&gt;" style="rounded=0;whiteSpace=wrap;html=1;strokeColor=#36393d;strokeWidth=0.5;fontFamily=Calibri;fontSource=https%3A%2F%2Ffonts.googleapis.com%2Fcss%3Ffamily%3DCalibri;fontSize=12;fillColor=#eeeeee;opacity=70;" parent="1" vertex="1">
                    <mxGeometry x="724.5" y="434" width="110" height="20" as="geometry"/>
                </mxCell>
                <mxCell id="63" style="edgeStyle=none;html=1;exitX=0.5;exitY=1;exitDx=0;exitDy=0;entryX=0.5;entryY=0;entryDx=0;entryDy=0;strokeColor=#4D4D4D;strokeWidth=0.5;fontFamily=Calibri;fontSource=https%3A%2F%2Ffonts.googleapis.com%2Fcss%3Ffamily%3DCalibri;fontSize=12;fontColor=#000000;endArrow=none;endFill=0;" parent="1" source="40" target="35" edge="1">
                    <mxGeometry relative="1" as="geometry"/>
                </mxCell>
                <mxCell id="65" style="edgeStyle=none;html=1;exitX=1;exitY=0.5;exitDx=0;exitDy=0;entryX=0;entryY=0.5;entryDx=0;entryDy=0;strokeColor=#4D4D4D;strokeWidth=0.5;fontFamily=Calibri;fontSource=https%3A%2F%2Ffonts.googleapis.com%2Fcss%3Ffamily%3DCalibri;fontSize=12;fontColor=#000000;endArrow=none;endFill=0;" parent="1" source="40" target="41" edge="1">
                    <mxGeometry relative="1" as="geometry"/>
                </mxCell>
                <mxCell id="66" style="edgeStyle=none;html=1;exitX=1;exitY=0.5;exitDx=0;exitDy=0;entryX=0;entryY=0.5;entryDx=0;entryDy=0;strokeColor=#4D4D4D;strokeWidth=0.5;fontFamily=Calibri;fontSource=https%3A%2F%2Ffonts.googleapis.com%2Fcss%3Ffamily%3DCalibri;fontSize=12;fontColor=#000000;endArrow=none;endFill=0;" parent="1" source="40" target="42" edge="1">
                    <mxGeometry relative="1" as="geometry"/>
                </mxCell>
                <mxCell id="40" value="&lt;h3&gt;&lt;font color=&quot;#000000&quot;&gt;Priority Profile (Weights)&lt;/font&gt;&lt;/h3&gt;" style="rounded=0;whiteSpace=wrap;html=1;strokeColor=#36393d;strokeWidth=0.5;fontFamily=Calibri;fontSource=https%3A%2F%2Ffonts.googleapis.com%2Fcss%3Ffamily%3DCalibri;fontSize=12;fillColor=#eeeeee;opacity=70;" parent="1" vertex="1">
                    <mxGeometry x="483.5" y="254" width="201" height="30" as="geometry"/>
                </mxCell>
                <mxCell id="41" value="&lt;font color=&quot;#000000&quot;&gt;Assign Directly&lt;/font&gt;" style="rounded=0;whiteSpace=wrap;html=1;strokeColor=#36393d;strokeWidth=0.5;fontFamily=Calibri;fontSource=https%3A%2F%2Ffonts.googleapis.com%2Fcss%3Ffamily%3DCalibri;fontSize=12;fillColor=#eeeeee;opacity=70;" parent="1" vertex="1">
                    <mxGeometry x="724.5" y="244" width="110" height="19.5" as="geometry"/>
                </mxCell>
                <mxCell id="42" value="&lt;font color=&quot;#000000&quot;&gt;AHP&lt;/font&gt;" style="rounded=0;whiteSpace=wrap;html=1;strokeColor=#36393d;strokeWidth=0.5;fontFamily=Calibri;fontSource=https%3A%2F%2Ffonts.googleapis.com%2Fcss%3Ffamily%3DCalibri;fontSize=12;fillColor=#eeeeee;opacity=70;" parent="1" vertex="1">
                    <mxGeometry x="724.5" y="274" width="110" height="20" as="geometry"/>
                </mxCell>
                <mxCell id="74" style="edgeStyle=none;html=1;exitX=1;exitY=0.5;exitDx=0;exitDy=0;entryX=0.003;entryY=0.698;entryDx=0;entryDy=0;entryPerimeter=0;strokeColor=#4D4D4D;strokeWidth=0.5;fontFamily=Calibri;fontSource=https%3A%2F%2Ffonts.googleapis.com%2Fcss%3Ffamily%3DCalibri;fontSize=12;fontColor=#000000;endArrow=none;endFill=0;" parent="1" source="43" target="72" edge="1">
                    <mxGeometry relative="1" as="geometry"/>
                </mxCell>
                <mxCell id="43" value="&lt;h3&gt;&lt;font color=&quot;#000000&quot;&gt;Ranking Alternatives&lt;/font&gt;&lt;/h3&gt;" style="rounded=0;whiteSpace=wrap;html=1;strokeColor=#36393d;strokeWidth=0.5;fontFamily=Calibri;fontSource=https%3A%2F%2Ffonts.googleapis.com%2Fcss%3Ffamily%3DCalibri;fontSize=12;fillColor=#eeeeee;opacity=70;" parent="1" vertex="1">
                    <mxGeometry x="486.5" y="563" width="198" height="30" as="geometry"/>
                </mxCell>
                <mxCell id="44" value="&lt;h3&gt;&lt;font color=&quot;#000000&quot;&gt;Criteria &amp;amp; Sub-Critieria&lt;/font&gt;&lt;/h3&gt;" style="rounded=0;whiteSpace=wrap;html=1;strokeColor=#36393d;strokeWidth=0.5;fontFamily=Calibri;fontSource=https%3A%2F%2Ffonts.googleapis.com%2Fcss%3Ffamily%3DCalibri;fontSize=12;fillColor=#eeeeee;opacity=70;" parent="1" vertex="1">
                    <mxGeometry x="164.5" y="124" width="220" height="30" as="geometry"/>
                </mxCell>
                <mxCell id="59" style="edgeStyle=none;html=1;exitX=0.5;exitY=1;exitDx=0;exitDy=0;entryX=0.5;entryY=0;entryDx=0;entryDy=0;strokeColor=#4D4D4D;strokeWidth=0.5;fontFamily=Calibri;fontSource=https%3A%2F%2Ffonts.googleapis.com%2Fcss%3Ffamily%3DCalibri;fontSize=12;fontColor=#000000;endArrow=none;endFill=0;" parent="1" source="58" target="40" edge="1">
                    <mxGeometry relative="1" as="geometry"/>
                </mxCell>
                <mxCell id="58" value="&lt;h3&gt;&lt;font color=&quot;#000000&quot;&gt;Stakeholder Meetings&lt;/font&gt;&lt;/h3&gt;" style="rounded=0;whiteSpace=wrap;html=1;strokeColor=#36393d;strokeWidth=0.5;fontFamily=Calibri;fontSource=https%3A%2F%2Ffonts.googleapis.com%2Fcss%3Ffamily%3DCalibri;fontSize=12;fillColor=#eeeeee;opacity=70;" parent="1" vertex="1">
                    <mxGeometry x="484" y="124" width="201" height="30" as="geometry"/>
                </mxCell>
                <mxCell id="72" value="&lt;h2&gt;&lt;font color=&quot;#000000&quot;&gt;Select Alternative (the most suitable parcel)&lt;/font&gt;&lt;/h2&gt;" style="rounded=0;whiteSpace=wrap;html=1;strokeColor=#36393d;strokeWidth=0.5;fontFamily=Calibri;fontSource=https%3A%2F%2Ffonts.googleapis.com%2Fcss%3Ffamily%3DCalibri;fontSize=12;fillColor=#eeeeee;opacity=70;fontStyle=0" parent="1" vertex="1">
                    <mxGeometry x="844.5" y="540" width="200" height="54" as="geometry"/>
                </mxCell>
                <mxCell id="102" style="edgeStyle=none;html=1;exitX=1;exitY=0.5;exitDx=0;exitDy=0;strokeColor=#4D4D4D;strokeWidth=0.5;fontFamily=Calibri;fontSource=https%3A%2F%2Ffonts.googleapis.com%2Fcss%3Ffamily%3DCalibri;fontSize=14;fontColor=#000000;endArrow=none;endFill=0;entryX=0;entryY=0.5;entryDx=0;entryDy=0;" parent="1" source="78" target="99" edge="1">
                    <mxGeometry relative="1" as="geometry">
                        <mxPoint x="-449" y="168.5000000000001" as="targetPoint"/>
                    </mxGeometry>
                </mxCell>
                <mxCell id="78" value="&lt;h3&gt;&lt;font color=&quot;#000000&quot;&gt;Generate 500 * 500m Grid&lt;/font&gt;&lt;/h3&gt;" style="rounded=0;whiteSpace=wrap;html=1;strokeColor=#36393d;strokeWidth=0.5;fontFamily=Calibri;fontSource=https%3A%2F%2Ffonts.googleapis.com%2Fcss%3Ffamily%3DCalibri;fontSize=12;fillColor=#eeeeee;opacity=70;" parent="1" vertex="1">
                    <mxGeometry x="-689" y="128.5" width="180" height="31" as="geometry"/>
                </mxCell>
                <mxCell id="80" value="MCDA" style="text;html=1;strokeColor=none;fillColor=none;align=center;verticalAlign=middle;whiteSpace=wrap;rounded=0;dashed=1;dashPattern=12 12;strokeWidth=0.5;fontFamily=Calibri;fontSource=https%3A%2F%2Ffonts.googleapis.com%2Fcss%3Ffamily%3DCalibri;fontSize=20;fontColor=#000000;opacity=70;" parent="1" vertex="1">
                    <mxGeometry x="550" y="56" width="60" height="30" as="geometry"/>
                </mxCell>
                <mxCell id="94" style="edgeStyle=none;html=1;exitX=1;exitY=0.5;exitDx=0;exitDy=0;entryX=0;entryY=0.5;entryDx=0;entryDy=0;strokeColor=#4D4D4D;strokeWidth=0.5;fontFamily=Calibri;fontSource=https%3A%2F%2Ffonts.googleapis.com%2Fcss%3Ffamily%3DCalibri;fontSize=14;fontColor=#000000;endArrow=none;endFill=0;" parent="1" source="83" target="78" edge="1">
                    <mxGeometry relative="1" as="geometry"/>
                </mxCell>
                <mxCell id="83" value="&lt;h3 style=&quot;font-size: 14px;&quot;&gt;&lt;font color=&quot;#000000&quot;&gt;&lt;font style=&quot;font-size: 14px;&quot;&gt;Philadelphia&amp;nbsp;&lt;/font&gt;Boundary&lt;/font&gt;&lt;/h3&gt;" style="ellipse;whiteSpace=wrap;html=1;strokeColor=#36393d;strokeWidth=0.5;fontFamily=Calibri;fontSource=https%3A%2F%2Ffonts.googleapis.com%2Fcss%3Ffamily%3DCalibri;fontSize=12;fillColor=#ffcccc;opacity=70;" parent="1" vertex="1">
                    <mxGeometry x="-929" y="118.5" width="180" height="51.5" as="geometry"/>
                </mxCell>
                <mxCell id="97" style="edgeStyle=none;html=1;exitX=1;exitY=0.5;exitDx=0;exitDy=0;entryX=0.007;entryY=0.595;entryDx=0;entryDy=0;strokeColor=#4D4D4D;strokeWidth=0.5;fontFamily=Calibri;fontSource=https%3A%2F%2Ffonts.googleapis.com%2Fcss%3Ffamily%3DCalibri;fontSize=14;fontColor=#000000;endArrow=none;endFill=0;entryPerimeter=0;" parent="1" source="84" edge="1">
                    <mxGeometry relative="1" as="geometry">
                        <mxPoint x="-749" y="203.75" as="sourcePoint"/>
                        <mxPoint x="-688.4399999999999" y="205.49249999999995" as="targetPoint"/>
                    </mxGeometry>
                </mxCell>
                <mxCell id="84" value="&lt;h3 style=&quot;font-size: 14px;&quot;&gt;&lt;font color=&quot;#000000&quot;&gt;Water Features&lt;/font&gt;&lt;/h3&gt;" style="ellipse;whiteSpace=wrap;html=1;strokeColor=#36393d;strokeWidth=0.5;fontFamily=Calibri;fontSource=https%3A%2F%2Ffonts.googleapis.com%2Fcss%3Ffamily%3DCalibri;fontSize=12;fillColor=#ffcccc;opacity=70;" parent="1" vertex="1">
                    <mxGeometry x="-929" y="180" width="180" height="51.5" as="geometry"/>
                </mxCell>
                <mxCell id="116" style="edgeStyle=none;html=1;exitX=1;exitY=0;exitDx=0;exitDy=0;entryX=0;entryY=0.5;entryDx=0;entryDy=0;strokeColor=#4D4D4D;strokeWidth=0.5;fontFamily=Calibri;fontSource=https%3A%2F%2Ffonts.googleapis.com%2Fcss%3Ffamily%3DCalibri;fontSize=14;fontColor=#000000;endArrow=none;endFill=0;" parent="1" source="85" target="111" edge="1">
                    <mxGeometry relative="1" as="geometry"/>
                </mxCell>
                <mxCell id="129" style="edgeStyle=none;html=1;exitX=1;exitY=1;exitDx=0;exitDy=0;entryX=0;entryY=0.5;entryDx=0;entryDy=0;strokeColor=#4D4D4D;strokeWidth=0.5;fontFamily=Calibri;fontSource=https%3A%2F%2Ffonts.googleapis.com%2Fcss%3Ffamily%3DCalibri;fontSize=14;fontColor=#FFFFFF;endArrow=none;endFill=0;" parent="1" source="85" target="88" edge="1">
                    <mxGeometry relative="1" as="geometry"/>
                </mxCell>
                <mxCell id="85" value="&lt;h3 style=&quot;font-size: 14px;&quot;&gt;&lt;font color=&quot;#000000&quot;&gt;ACS 2020&lt;/font&gt;&lt;/h3&gt;" style="ellipse;whiteSpace=wrap;html=1;strokeWidth=0.5;fontFamily=Calibri;fontSource=https%3A%2F%2Ffonts.googleapis.com%2Fcss%3Ffamily%3DCalibri;fontSize=12;opacity=70;fillColor=#cce5ff;strokeColor=#36393d;" parent="1" vertex="1">
                    <mxGeometry x="-688" y="406.5" width="130" height="47.5" as="geometry"/>
                </mxCell>
                <mxCell id="107" style="edgeStyle=none;html=1;exitX=1;exitY=1;exitDx=0;exitDy=0;entryX=0;entryY=0.5;entryDx=0;entryDy=0;strokeColor=#4D4D4D;strokeWidth=0.5;fontFamily=Calibri;fontSource=https%3A%2F%2Ffonts.googleapis.com%2Fcss%3Ffamily%3DCalibri;fontSize=14;fontColor=#000000;endArrow=none;endFill=0;" parent="1" source="86" target="105" edge="1">
                    <mxGeometry relative="1" as="geometry"/>
                </mxCell>
                <mxCell id="86" value="&lt;h3 style=&quot;font-size: 14px;&quot;&gt;&lt;font color=&quot;#000000&quot;&gt;Public Parking&lt;/font&gt;&lt;/h3&gt;" style="ellipse;whiteSpace=wrap;html=1;strokeWidth=0.5;fontFamily=Calibri;fontSource=https%3A%2F%2Ffonts.googleapis.com%2Fcss%3Ffamily%3DCalibri;fontSize=12;opacity=70;fillColor=#cce5ff;strokeColor=#36393d;" parent="1" vertex="1">
                    <mxGeometry x="-689" y="234.5" width="130" height="47.5" as="geometry"/>
                </mxCell>
                <mxCell id="130" style="edgeStyle=none;html=1;exitX=1;exitY=0.5;exitDx=0;exitDy=0;strokeColor=#4D4D4D;strokeWidth=0.5;fontFamily=Calibri;fontSource=https%3A%2F%2Ffonts.googleapis.com%2Fcss%3Ffamily%3DCalibri;fontSize=14;fontColor=#FFFFFF;endArrow=none;endFill=0;entryX=0;entryY=0.5;entryDx=0;entryDy=0;" parent="1" source="87" target="88" edge="1">
                    <mxGeometry relative="1" as="geometry">
                        <mxPoint x="-489.05478922526027" y="488.5" as="targetPoint"/>
                    </mxGeometry>
                </mxCell>
                <mxCell id="87" value="&lt;h3 style=&quot;font-size: 14px;&quot;&gt;&lt;font color=&quot;#000000&quot;&gt;Registered EV&lt;/font&gt;&lt;/h3&gt;" style="ellipse;whiteSpace=wrap;html=1;strokeWidth=0.5;fontFamily=Calibri;fontSource=https%3A%2F%2Ffonts.googleapis.com%2Fcss%3Ffamily%3DCalibri;fontSize=12;opacity=70;fillColor=#cce5ff;strokeColor=#36393d;" parent="1" vertex="1">
                    <mxGeometry x="-688" y="464.5" width="130" height="47.5" as="geometry"/>
                </mxCell>
                <mxCell id="134" style="edgeStyle=none;html=1;exitX=1;exitY=0.5;exitDx=0;exitDy=0;entryX=0;entryY=1;entryDx=0;entryDy=0;strokeColor=#4D4D4D;strokeWidth=0.5;fontFamily=Calibri;fontSource=https%3A%2F%2Ffonts.googleapis.com%2Fcss%3Ffamily%3DCalibri;fontSize=14;fontColor=#FFFFFF;endArrow=none;endFill=0;" parent="1" source="88" target="125" edge="1">
                    <mxGeometry relative="1" as="geometry"/>
                </mxCell>
                <mxCell id="88" value="&lt;h3&gt;&lt;font color=&quot;#000000&quot;&gt;Spatial Join&lt;/font&gt;&lt;/h3&gt;" style="rounded=0;whiteSpace=wrap;html=1;strokeColor=#36393d;strokeWidth=0.5;fontFamily=Calibri;fontSource=https%3A%2F%2Ffonts.googleapis.com%2Fcss%3Ffamily%3DCalibri;fontSize=12;fillColor=#eeeeee;opacity=70;" parent="1" vertex="1">
                    <mxGeometry x="-490" y="473" width="131" height="30.5" as="geometry"/>
                </mxCell>
                <mxCell id="108" style="edgeStyle=none;html=1;exitX=1;exitY=0.5;exitDx=0;exitDy=0;entryX=0;entryY=0.5;entryDx=0;entryDy=0;strokeColor=#4D4D4D;strokeWidth=0.5;fontFamily=Calibri;fontSource=https%3A%2F%2Ffonts.googleapis.com%2Fcss%3Ffamily%3DCalibri;fontSize=14;fontColor=#000000;endArrow=none;endFill=0;" parent="1" source="89" target="105" edge="1">
                    <mxGeometry relative="1" as="geometry"/>
                </mxCell>
                <mxCell id="89" value="&lt;h3 style=&quot;font-size: 14px;&quot;&gt;&lt;font color=&quot;#000000&quot;&gt;Parking Spaces&lt;/font&gt;&lt;/h3&gt;" style="ellipse;whiteSpace=wrap;html=1;strokeWidth=0.5;fontFamily=Calibri;fontSource=https%3A%2F%2Ffonts.googleapis.com%2Fcss%3Ffamily%3DCalibri;fontSize=12;opacity=70;fillColor=#cce5ff;strokeColor=#36393d;" parent="1" vertex="1">
                    <mxGeometry x="-689" y="292" width="130" height="47.5" as="geometry"/>
                </mxCell>
                <mxCell id="133" style="edgeStyle=none;html=1;exitX=1;exitY=0.5;exitDx=0;exitDy=0;entryX=0;entryY=0.5;entryDx=0;entryDy=0;strokeColor=#4D4D4D;strokeWidth=0.5;fontFamily=Calibri;fontSource=https%3A%2F%2Ffonts.googleapis.com%2Fcss%3Ffamily%3DCalibri;fontSize=14;fontColor=#FFFFFF;endArrow=none;endFill=0;" parent="1" source="90" target="132" edge="1">
                    <mxGeometry relative="1" as="geometry"/>
                </mxCell>
                <mxCell id="90" value="&lt;h3 style=&quot;font-size: 14px;&quot;&gt;&lt;font color=&quot;#000000&quot;&gt;Zoning&lt;/font&gt;&lt;/h3&gt;" style="ellipse;whiteSpace=wrap;html=1;strokeWidth=0.5;fontFamily=Calibri;fontSource=https%3A%2F%2Ffonts.googleapis.com%2Fcss%3Ffamily%3DCalibri;fontSize=12;opacity=70;fillColor=#cce5ff;strokeColor=#36393d;" parent="1" vertex="1">
                    <mxGeometry x="-689" y="584.5" width="130" height="47.5" as="geometry"/>
                </mxCell>
                <mxCell id="98" style="edgeStyle=none;html=1;exitX=1;exitY=0.5;exitDx=0;exitDy=0;entryX=0;entryY=0.5;entryDx=0;entryDy=0;strokeColor=#4D4D4D;strokeWidth=0.5;fontFamily=Calibri;fontSource=https%3A%2F%2Ffonts.googleapis.com%2Fcss%3Ffamily%3DCalibri;fontSize=14;fontColor=#000000;endArrow=none;endFill=0;" parent="1" source="95" target="96" edge="1">
                    <mxGeometry relative="1" as="geometry"/>
                </mxCell>
                <mxCell id="95" value="&lt;h3&gt;&lt;font color=&quot;#000000&quot;&gt;Dissolve&lt;/font&gt;&lt;/h3&gt;" style="rounded=0;whiteSpace=wrap;html=1;strokeColor=#36393d;strokeWidth=0.5;fontFamily=Calibri;fontSource=https%3A%2F%2Ffonts.googleapis.com%2Fcss%3Ffamily%3DCalibri;fontSize=12;fillColor=#eeeeee;opacity=70;" parent="1" vertex="1">
                    <mxGeometry x="-689" y="186.75" width="80" height="31.5" as="geometry"/>
                </mxCell>
                <mxCell id="101" style="edgeStyle=none;html=1;exitX=1;exitY=0.5;exitDx=0;exitDy=0;entryX=0;entryY=0.5;entryDx=0;entryDy=0;strokeColor=#4D4D4D;strokeWidth=0.5;fontFamily=Calibri;fontSource=https%3A%2F%2Ffonts.googleapis.com%2Fcss%3Ffamily%3DCalibri;fontSize=14;fontColor=#000000;endArrow=none;endFill=0;" parent="1" source="96" target="99" edge="1">
                    <mxGeometry relative="1" as="geometry"/>
                </mxCell>
                <mxCell id="96" value="&lt;h3&gt;&lt;font color=&quot;#000000&quot;&gt;Buffer&lt;/font&gt;&lt;/h3&gt;" style="rounded=0;whiteSpace=wrap;html=1;strokeColor=#36393d;strokeWidth=0.5;fontFamily=Calibri;fontSource=https%3A%2F%2Ffonts.googleapis.com%2Fcss%3Ffamily%3DCalibri;fontSize=12;fillColor=#eeeeee;opacity=70;" parent="1" vertex="1">
                    <mxGeometry x="-589" y="186.75" width="80" height="31.5" as="geometry"/>
                </mxCell>
                <mxCell id="104" style="edgeStyle=none;html=1;exitX=1;exitY=0.5;exitDx=0;exitDy=0;entryX=0;entryY=0.5;entryDx=0;entryDy=0;strokeColor=#4D4D4D;strokeWidth=0.5;fontFamily=Calibri;fontSource=https%3A%2F%2Ffonts.googleapis.com%2Fcss%3Ffamily%3DCalibri;fontSize=14;fontColor=#000000;endArrow=none;endFill=0;" parent="1" source="99" target="103" edge="1">
                    <mxGeometry relative="1" as="geometry"/>
                </mxCell>
                <mxCell id="99" value="&lt;h3&gt;&lt;font color=&quot;#000000&quot;&gt;Intersection&lt;/font&gt;&lt;/h3&gt;" style="rounded=0;whiteSpace=wrap;html=1;strokeColor=#36393d;strokeWidth=0.5;fontFamily=Calibri;fontSource=https%3A%2F%2Ffonts.googleapis.com%2Fcss%3Ffamily%3DCalibri;fontSize=12;fillColor=#eeeeee;opacity=70;" parent="1" vertex="1">
                    <mxGeometry x="-449" y="156.75" width="100" height="31" as="geometry"/>
                </mxCell>
                <mxCell id="124" style="edgeStyle=none;html=1;exitX=0.5;exitY=1;exitDx=0;exitDy=0;entryX=0.5;entryY=0;entryDx=0;entryDy=0;strokeColor=#4D4D4D;strokeWidth=0.5;fontFamily=Calibri;fontSource=https%3A%2F%2Ffonts.googleapis.com%2Fcss%3Ffamily%3DCalibri;fontSize=14;fontColor=#000000;endArrow=none;endFill=0;" parent="1" source="103" target="121" edge="1">
                    <mxGeometry relative="1" as="geometry"/>
                </mxCell>
                <mxCell id="103" value="&lt;h3&gt;&lt;font color=&quot;#000000&quot;&gt;Remove Grids in Water&lt;/font&gt;&lt;/h3&gt;" style="rounded=0;whiteSpace=wrap;html=1;strokeColor=#36393d;strokeWidth=0.5;fontFamily=Calibri;fontSource=https%3A%2F%2Ffonts.googleapis.com%2Fcss%3Ffamily%3DCalibri;fontSize=12;fillColor=#eeeeee;opacity=70;" parent="1" vertex="1">
                    <mxGeometry x="-329" y="156.75" width="180" height="31" as="geometry"/>
                </mxCell>
                <mxCell id="126" style="edgeStyle=none;html=1;exitX=1;exitY=0.5;exitDx=0;exitDy=0;entryX=0;entryY=0;entryDx=0;entryDy=0;strokeColor=#4D4D4D;strokeWidth=0.5;fontFamily=Calibri;fontSource=https%3A%2F%2Ffonts.googleapis.com%2Fcss%3Ffamily%3DCalibri;fontSize=14;fontColor=#FFFFFF;endArrow=none;endFill=0;" parent="1" source="105" target="125" edge="1">
                    <mxGeometry relative="1" as="geometry"/>
                </mxCell>
                <mxCell id="105" value="&lt;h3&gt;&lt;font color=&quot;#000000&quot;&gt;K Nearest Neighbor&lt;/font&gt;&lt;/h3&gt;" style="rounded=0;whiteSpace=wrap;html=1;strokeColor=#36393d;strokeWidth=0.5;fontFamily=Calibri;fontSource=https%3A%2F%2Ffonts.googleapis.com%2Fcss%3Ffamily%3DCalibri;fontSize=12;fillColor=#eeeeee;opacity=70;" parent="1" vertex="1">
                    <mxGeometry x="-490" y="300" width="130" height="31.5" as="geometry"/>
                </mxCell>
                <mxCell id="110" style="edgeStyle=none;html=1;exitX=1;exitY=0;exitDx=0;exitDy=0;entryX=0;entryY=0.5;entryDx=0;entryDy=0;strokeColor=#4D4D4D;strokeWidth=0.5;fontFamily=Calibri;fontSource=https%3A%2F%2Ffonts.googleapis.com%2Fcss%3Ffamily%3DCalibri;fontSize=14;fontColor=#000000;endArrow=none;endFill=0;" parent="1" source="106" target="105" edge="1">
                    <mxGeometry relative="1" as="geometry"/>
                </mxCell>
                <mxCell id="115" style="edgeStyle=none;html=1;exitX=1;exitY=1;exitDx=0;exitDy=0;entryX=0;entryY=0.5;entryDx=0;entryDy=0;strokeColor=#4D4D4D;strokeWidth=0.5;fontFamily=Calibri;fontSource=https%3A%2F%2Ffonts.googleapis.com%2Fcss%3Ffamily%3DCalibri;fontSize=14;fontColor=#000000;endArrow=none;endFill=0;" parent="1" source="106" target="111" edge="1">
                    <mxGeometry relative="1" as="geometry"/>
                </mxCell>
                <mxCell id="106" value="&lt;h3 style=&quot;font-size: 14px;&quot;&gt;&lt;font color=&quot;#000000&quot;&gt;Existing EVSE&lt;/font&gt;&lt;/h3&gt;" style="ellipse;whiteSpace=wrap;html=1;strokeWidth=0.5;fontFamily=Calibri;fontSource=https%3A%2F%2Ffonts.googleapis.com%2Fcss%3Ffamily%3DCalibri;fontSize=12;opacity=70;fillColor=#cce5ff;strokeColor=#36393d;" parent="1" vertex="1">
                    <mxGeometry x="-689" y="349.11" width="130" height="47.5" as="geometry"/>
                </mxCell>
                <mxCell id="127" style="edgeStyle=none;html=1;exitX=1;exitY=0.5;exitDx=0;exitDy=0;strokeColor=#4D4D4D;strokeWidth=0.5;fontFamily=Calibri;fontSource=https%3A%2F%2Ffonts.googleapis.com%2Fcss%3Ffamily%3DCalibri;fontSize=14;fontColor=#FFFFFF;endArrow=none;endFill=0;entryX=0;entryY=0.5;entryDx=0;entryDy=0;" parent="1" source="111" target="125" edge="1">
                    <mxGeometry relative="1" as="geometry">
                        <mxPoint x="-315" y="383.5" as="targetPoint"/>
                    </mxGeometry>
                </mxCell>
                <mxCell id="111" value="&lt;h3&gt;&lt;font color=&quot;#000000&quot;&gt;2SFCA&lt;/font&gt;&lt;/h3&gt;" style="rounded=0;whiteSpace=wrap;html=1;strokeColor=#36393d;strokeWidth=0.5;fontFamily=Calibri;fontSource=https%3A%2F%2Ffonts.googleapis.com%2Fcss%3Ffamily%3DCalibri;fontSize=12;fillColor=#eeeeee;opacity=70;" parent="1" vertex="1">
                    <mxGeometry x="-490" y="387.5" width="130" height="31.5" as="geometry"/>
                </mxCell>
                <mxCell id="131" style="edgeStyle=none;html=1;exitX=1;exitY=0;exitDx=0;exitDy=0;entryX=0;entryY=0.5;entryDx=0;entryDy=0;strokeColor=#4D4D4D;strokeWidth=0.5;fontFamily=Calibri;fontSource=https%3A%2F%2Ffonts.googleapis.com%2Fcss%3Ffamily%3DCalibri;fontSize=14;fontColor=#FFFFFF;endArrow=none;endFill=0;" parent="1" source="114" target="88" edge="1">
                    <mxGeometry relative="1" as="geometry"/>
                </mxCell>
                <mxCell id="114" value="&lt;h3 style=&quot;font-size: 14px;&quot;&gt;&lt;font color=&quot;#000000&quot;&gt;Power Outage&lt;/font&gt;&lt;/h3&gt;" style="ellipse;whiteSpace=wrap;html=1;strokeWidth=0.5;fontFamily=Calibri;fontSource=https%3A%2F%2Ffonts.googleapis.com%2Fcss%3Ffamily%3DCalibri;fontSize=12;opacity=70;fillColor=#cce5ff;strokeColor=#36393d;" parent="1" vertex="1">
                    <mxGeometry x="-688" y="524.5" width="130" height="47.5" as="geometry"/>
                </mxCell>
                <mxCell id="128" style="edgeStyle=none;html=1;exitX=0.5;exitY=1;exitDx=0;exitDy=0;entryX=0.5;entryY=0;entryDx=0;entryDy=0;strokeColor=#4D4D4D;strokeWidth=0.5;fontFamily=Calibri;fontSource=https%3A%2F%2Ffonts.googleapis.com%2Fcss%3Ffamily%3DCalibri;fontSize=14;fontColor=#FFFFFF;endArrow=none;endFill=0;" parent="1" source="121" target="125" edge="1">
                    <mxGeometry relative="1" as="geometry"/>
                </mxCell>
                <mxCell id="121" value="&lt;h3&gt;&lt;font color=&quot;#000000&quot;&gt;Centroid&lt;/font&gt;&lt;/h3&gt;" style="rounded=0;whiteSpace=wrap;html=1;strokeColor=#36393d;strokeWidth=0.5;fontFamily=Calibri;fontSource=https%3A%2F%2Ffonts.googleapis.com%2Fcss%3Ffamily%3DCalibri;fontSize=12;fillColor=#eeeeee;opacity=70;" parent="1" vertex="1">
                    <mxGeometry x="-279" y="213.5" width="80" height="31" as="geometry"/>
                </mxCell>
                <mxCell id="138" style="edgeStyle=none;html=1;exitX=1;exitY=0.5;exitDx=0;exitDy=0;entryX=0;entryY=0.5;entryDx=0;entryDy=0;strokeColor=#4D4D4D;strokeWidth=0.5;fontFamily=Calibri;fontSource=https%3A%2F%2Ffonts.googleapis.com%2Fcss%3Ffamily%3DCalibri;fontSize=14;fontColor=#FFFFFF;endArrow=none;endFill=0;" parent="1" source="125" target="136" edge="1">
                    <mxGeometry relative="1" as="geometry"/>
                </mxCell>
                <mxCell id="125" value="&lt;h3 style=&quot;font-size: 14px;&quot;&gt;&lt;font color=&quot;#ffffff&quot;&gt;Processed Grids&lt;/font&gt;&lt;/h3&gt;" style="ellipse;whiteSpace=wrap;html=1;strokeWidth=0.5;fontFamily=Calibri;fontSource=https%3A%2F%2Ffonts.googleapis.com%2Fcss%3Ffamily%3DCalibri;fontSize=12;opacity=70;fillColor=#76608a;fontColor=#ffffff;strokeColor=#432D57;" parent="1" vertex="1">
                    <mxGeometry x="-304" y="378.75" width="130" height="47.5" as="geometry"/>
                </mxCell>
                <mxCell id="135" style="edgeStyle=none;html=1;exitX=1;exitY=0.5;exitDx=0;exitDy=0;entryX=0.5;entryY=1;entryDx=0;entryDy=0;strokeColor=#4D4D4D;strokeWidth=0.5;fontFamily=Calibri;fontSource=https%3A%2F%2Ffonts.googleapis.com%2Fcss%3Ffamily%3DCalibri;fontSize=14;fontColor=#FFFFFF;endArrow=none;endFill=0;" parent="1" source="132" target="125" edge="1">
                    <mxGeometry relative="1" as="geometry"/>
                </mxCell>
                <mxCell id="132" value="&lt;h3&gt;&lt;font color=&quot;#000000&quot;&gt;Intersection&lt;/font&gt;&lt;/h3&gt;" style="rounded=0;whiteSpace=wrap;html=1;strokeColor=#36393d;strokeWidth=0.5;fontFamily=Calibri;fontSource=https%3A%2F%2Ffonts.googleapis.com%2Fcss%3Ffamily%3DCalibri;fontSize=12;fillColor=#eeeeee;opacity=70;" parent="1" vertex="1">
                    <mxGeometry x="-490" y="593.5" width="131" height="30.5" as="geometry"/>
                </mxCell>
                <mxCell id="139" style="edgeStyle=none;html=1;exitX=1;exitY=0.5;exitDx=0;exitDy=0;strokeColor=#4D4D4D;strokeWidth=0.5;fontFamily=Calibri;fontSource=https%3A%2F%2Ffonts.googleapis.com%2Fcss%3Ffamily%3DCalibri;fontSize=14;fontColor=#FFFFFF;endArrow=none;endFill=0;" parent="1" source="136" target="137" edge="1">
                    <mxGeometry relative="1" as="geometry"/>
                </mxCell>
                <mxCell id="136" value="&lt;h3&gt;&lt;font color=&quot;#000000&quot;&gt;Scale Features&lt;/font&gt;&lt;/h3&gt;" style="rounded=0;whiteSpace=wrap;html=1;strokeColor=#36393d;strokeWidth=0.5;fontFamily=Calibri;fontSource=https%3A%2F%2Ffonts.googleapis.com%2Fcss%3Ffamily%3DCalibri;fontSize=12;fillColor=#eeeeee;opacity=70;" parent="1" vertex="1">
                    <mxGeometry x="-149" y="387" width="111" height="31" as="geometry"/>
                </mxCell>
                <mxCell id="137" value="&lt;h3&gt;&lt;font color=&quot;#000000&quot;&gt;Inverse Scale if Necessary&lt;/font&gt;&lt;/h3&gt;" style="rounded=0;whiteSpace=wrap;html=1;strokeColor=#36393d;strokeWidth=0.5;fontFamily=Calibri;fontSource=https%3A%2F%2Ffonts.googleapis.com%2Fcss%3Ffamily%3DCalibri;fontSize=12;fillColor=#eeeeee;opacity=70;" parent="1" vertex="1">
                    <mxGeometry x="-14" y="373.5" width="111" height="56" as="geometry"/>
                </mxCell>
                <mxCell id="150" value="Geospatial Pre Process" style="text;html=1;strokeColor=none;fillColor=none;align=center;verticalAlign=middle;whiteSpace=wrap;rounded=0;dashed=1;dashPattern=12 12;strokeWidth=0.5;fontFamily=Calibri;fontSource=https%3A%2F%2Ffonts.googleapis.com%2Fcss%3Ffamily%3DCalibri;fontSize=20;fontColor=#000000;opacity=70;" parent="1" vertex="1">
                    <mxGeometry x="-600" y="59" width="271" height="30" as="geometry"/>
                </mxCell>
            </root>
        </mxGraphModel>
    </diagram>
</mxfile>